# xmcd
#
# Track frame offsets:
#	150
#	18902
#	34232
#	51847
#	67909
#	83171
#	101964
#	117371
#	134986
#	151039
#
# Disc length: 2220 seconds
#
# Revision: 1
# Processed by: cddbd v1.5.2PL0 Copyright (c) Steve Scherf et al.
# Submitted via: audiograbber 1.83.01
#
DISCID=8408aa0a
DTITLE=Jo Dee Messina - PSC1344G
DYEAR=1900
DGENRE=Karaoke
TTITLE0=Messina, Jo Dee - Because You Love Me
TTITLE1=Messina, Jo Dee - I'm Right
TTITLE2=Messina, Jo Dee - Stand Beside Me
TTITLE3=Messina, Jo Dee - Lesson In Leavin'
TTITLE4=Messina, Jo Dee - Bye Bye
TTITLE5=Messina, Jo Dee - Because You Love Me
TTITLE6=Messina, Jo Dee - I'm Right
TTITLE7=Messina, Jo Dee - Stand Beside Me
TTITLE8=Messina, Jo Dee - Lesson In Leavin'
TTITLE9=Messina, Jo Dee - Bye Bye
EXTD=
EXTT0=
EXTT1=
EXTT2=
EXTT3=
EXTT4=
EXTT5=
EXTT6=
EXTT7=
EXTT8=
EXTT9=
PLAYORDER=
